.
 
http://www.scenetime.com    -   SceneTime [ We been having it ] !!!


How come you press harder on a remote control when you know the battery is dead? so you better seed to get speed ;)

        Seed back for speed


...................................NFO:.................................................General
Complete name                    : E:\Documents and Settings\coop\Desktop\Green.Lantern.Emerald.Knights.2011.Xvid.Dvd.Rip.TC.M\G.L.E.K.T.C.M.avi
Format                           : AVI
Format/Info                      : Audio Video Interleave
File size                        : 770 MiB
Duration                         : 1h 23mn
Overall bit rate                 : 1 287 Kbps
Movie name                       : G.L.E.K.T.C.M
Encoded by                       : Cooperman
Writing application              : MEncoder version 4.1.5 building on 20101022
Copyright                        : T.C.M

Video
ID                               : 0
Format                           : MPEG-4 Visual
Format profile                   : Advanced Simple@L5
Format settings, BVOP            : 2
Format settings, QPel            : No
Format settings, GMC             : No warppoints
Format settings, Matrix          : Default (MPEG)
Codec ID                         : XVID
Codec ID/Hint                    : XviD
Duration                         : 1h 23mn
Bit rate                         : 1 163 Kbps
Width                            : 640 pixels
Height                           : 340 pixels
Display aspect ratio             : 1.882
Frame rate                       : 23.976 fps
Color space                      : YUV
Chroma subsampling               : 4:2:0
Bit depth                        : 8 bits
Scan type                        : Progressive
Compression mode                 : Lossy
Bits/(Pixel*Frame)               : 0.223
Stream size                      : 695 MiB (90%)
Writing library                  : XviD 1.2.1 (UTC 2008-12-04)

Audio
ID                               : 1
Format                           : MPEG Audio
Format version                   : Version 1
Format profile                   : Layer 3
Codec ID                         : 55
Codec ID/Hint                    : MP3
Duration                         : 1h 23mn
Bit rate mode                    : Constant
Bit rate                         : 112 Kbps
Channel(s)                       : 2 channels
Sampling rate                    : 48.0 KHz
Compression mode                 : Lossy
Delay relative to video          : 42ms
Stream size                      : 67.0 MiB (9%)
Alignment                        : Aligned on interleaves
Interleave, duration             : 24 ms (0.58 video frame)
Interleave, preload duration     : 504 ms
Writing library                  : LAME3.98.4
Language                         : un/english
Subs                             : No


source file  :  Green.Lantern.Emerald.Knights.2011.NTSC.DVDR-STOCK
THANXS TO ALL THE BOYS N GIRLS @ STOCK! :)

55X14.mb rars [main movie avi]
snaps n thumbs
sfv
nfo
Enjoy the movie!!
GREATINGS TO ALL THE P2P PLACES I LURK AT!
tcm@hushmail.com